<svg xmlns="http://www.w3.org/2000/svg"><symbol viewBox="0 0 357 357" id="src-1"><g><g id="fullscreen"><path d="M51,229.5H0V357h127.5v-51H51V229.5z M0,127.5h51V51h76.5V0H0V127.5z M306,306h-76.5v51H357V229.5h-51V306z M229.5,0v51    H306v76.5h51V0H229.5z"/></g></g><g/><g/><g/><g/><g/><g/><g/><g/><g/><g/><g/><g/><g/><g/><g/></symbol><symbol viewBox="0 0 512 448" id="src-2"><g><g><g><path d="M0,64v384h512V64H0z M480,416H32V96h448V416z"/><polygon points="96,160 160,160 160,128 64,128 64,224 96,224    "/><polygon points="448,288 416,288 416,352 352,352 352,384 448,384    "/><rect x="192" y="128" width="32" height="32"/><rect x="64" y="256" width="32" height="32"/><rect x="416" y="224" width="32" height="32"/><rect x="288" y="352" width="32" height="32"/></g></g></g><g/><g/><g/><g/><g/><g/><g/><g/><g/><g/><g/><g/><g/><g/><g/></symbol><symbol viewBox="0 0 511.97733 490.6587" id="src-3"><g><g><g><path d="M341.552,85.334c-0.077-0.001-0.152-0.012-0.229-0.012H222.159l27.582-27.582c8.331-8.331,8.331-21.839,0-30.17     c-8.331-8.331-21.839-8.331-30.17,0l-64,64c-0.497,0.497-0.967,1.02-1.413,1.563c-0.202,0.246-0.378,0.506-0.568,0.759     c-0.228,0.304-0.463,0.601-0.674,0.917c-0.203,0.303-0.379,0.618-0.564,0.929c-0.171,0.286-0.351,0.566-0.509,0.861     c-0.169,0.317-0.313,0.643-0.465,0.966c-0.145,0.308-0.299,0.611-0.43,0.926c-0.13,0.314-0.235,0.635-0.349,0.953     c-0.122,0.338-0.251,0.672-0.356,1.018c-0.096,0.318-0.167,0.642-0.248,0.964c-0.089,0.353-0.188,0.701-0.259,1.061     c-0.074,0.372-0.118,0.748-0.171,1.122c-0.045,0.314-0.104,0.622-0.136,0.94c-0.068,0.693-0.105,1.388-0.105,2.084     c0,0.007-0.001,0.014-0.001,0.021c0,0.008,0.001,0.015,0.001,0.023c0.001,0.695,0.037,1.39,0.105,2.082     c0.031,0.318,0.091,0.627,0.136,0.941c0.054,0.375,0.097,0.75,0.171,1.122c0.071,0.36,0.17,0.708,0.259,1.061     c0.081,0.322,0.151,0.645,0.248,0.963c0.105,0.346,0.235,0.68,0.356,1.019c0.114,0.318,0.219,0.638,0.348,0.951     c0.131,0.316,0.285,0.619,0.43,0.927c0.152,0.323,0.296,0.649,0.465,0.965c0.158,0.295,0.338,0.576,0.51,0.862     c0.185,0.31,0.361,0.625,0.564,0.928c0.212,0.317,0.448,0.615,0.676,0.919c0.189,0.252,0.364,0.512,0.566,0.757     c0.446,0.544,0.916,1.067,1.413,1.564l64,64c8.331,8.331,21.839,8.331,30.17,0c8.331-8.331,8.331-21.839,0-30.17l-27.582-27.582     h118.984c0.057,0,0.112,0.009,0.169,0.009c70.778,0,128,57.222,128,128c0,31.068-12.408,60.299-34.121,82.031     c-8.328,8.335-8.322,21.842,0.013,30.17c8.335,8.328,21.842,8.322,30.17-0.013c29.612-29.637,46.605-69.67,46.605-112.188     C511.979,161.736,435.783,85.464,341.552,85.334z"/><path d="M358.39,418.083c0.227-0.303,0.462-0.6,0.673-0.915c0.203-0.304,0.379-0.619,0.565-0.931     c0.171-0.286,0.35-0.565,0.507-0.859c0.17-0.318,0.314-0.645,0.467-0.97c0.145-0.306,0.298-0.608,0.428-0.922     c0.13-0.315,0.236-0.637,0.35-0.957c0.121-0.337,0.25-0.669,0.354-1.013c0.097-0.32,0.168-0.646,0.249-0.969     c0.089-0.351,0.187-0.698,0.258-1.055c0.074-0.375,0.118-0.753,0.173-1.13c0.044-0.311,0.104-0.617,0.135-0.932     c0.138-1.4,0.138-2.811,0-4.211c-0.031-0.316-0.09-0.622-0.135-0.933c-0.054-0.377-0.098-0.755-0.172-1.13     c-0.071-0.358-0.169-0.705-0.258-1.056c-0.081-0.323-0.152-0.648-0.249-0.968c-0.104-0.345-0.234-0.677-0.355-1.014     c-0.115-0.32-0.22-0.642-0.35-0.957c-0.13-0.314-0.283-0.615-0.428-0.921c-0.153-0.325-0.297-0.653-0.468-0.971     c-0.157-0.293-0.336-0.572-0.506-0.857c-0.186-0.312-0.363-0.628-0.566-0.932c-0.211-0.315-0.445-0.611-0.671-0.913     c-0.191-0.255-0.368-0.516-0.571-0.764c-0.439-0.535-0.903-1.05-1.392-1.54c-0.007-0.008-0.014-0.016-0.021-0.023l-64-64     c-8.331-8.331-21.839-8.331-30.17,0c-8.331,8.331-8.331,21.839,0,30.17l27.582,27.582H170.836c-0.057,0-0.112-0.009-0.169-0.009     c-70.778,0-128-57.222-128-128c0-31.068,12.408-60.299,34.121-82.031c8.328-8.335,8.322-21.842-0.013-30.17     c-8.335-8.328-21.842-8.322-30.17,0.013C16.993,173.43,0,213.463,0,255.981c0,94.262,76.196,170.534,170.427,170.664     c0.077,0.001,0.152,0.012,0.229,0.012h119.163l-27.582,27.582c-8.331,8.331-8.331,21.839,0,30.17     c8.331,8.331,21.839,8.331,30.17,0l64-64c0.004-0.004,0.007-0.008,0.011-0.012c0.492-0.493,0.959-1.012,1.402-1.551     C358.024,418.597,358.2,418.337,358.39,418.083z"/></g></g></g><g/><g/><g/><g/><g/><g/><g/><g/><g/><g/><g/><g/><g/><g/><g/></symbol><symbol viewBox="0 0 448.0293 448.0747" id="src-4"><path d="M352.021,16.075c0-6.08-3.52-11.84-8.96-14.4c-5.76-2.88-12.16-1.92-16.96,1.92l-141.76,112.96l167.68,167.68V16.075z"/><path d="M443.349,420.747l-416-416c-6.24-6.24-16.384-6.24-22.624,0s-6.24,16.384,0,22.624l100.672,100.704h-9.376  c-9.92,0-18.56,4.48-24.32,11.52c-4.8,5.44-7.68,12.8-7.68,20.48v128c0,17.6,14.4,32,32,32h74.24l155.84,124.48  c2.88,2.24,6.4,3.52,9.92,3.52c2.24,0,4.8-0.64,7.04-1.6c5.44-2.56,8.96-8.32,8.96-14.4v-57.376l68.672,68.672  c3.136,3.136,7.232,4.704,11.328,4.704s8.192-1.568,11.328-4.672C449.589,437.131,449.589,427.019,443.349,420.747z"/><g/><g/><g/><g/><g/><g/><g/><g/><g/><g/><g/><g/><g/><g/><g/></symbol><symbol viewBox="0 0 469.33334 512" id="src-5"><g><g><path d="M181.333,0H74.667c-17.643,0-32,14.357-32,32v448c0,17.643,14.357,32,32,32h106.667c17.643,0,32-14.357,32-32V32    C213.333,14.357,198.976,0,181.333,0z"/></g></g><g><g><path d="M437.333,0H330.667c-17.643,0-32,14.357-32,32v448c0,17.643,14.357,32,32,32h106.667c17.643,0,32-14.357,32-32V32    C469.333,14.357,454.976,0,437.333,0z"/></g></g><g/><g/><g/><g/><g/><g/><g/><g/><g/><g/><g/><g/><g/><g/><g/></symbol><symbol viewBox="0 0 155.75232 163.85735" id="src-6"><g><path d="M34.857,3.613C20.084-4.861,8.107,2.081,8.107,19.106v125.637c0,17.042,11.977,23.975,26.75,15.509L144.67,97.275   c14.778-8.477,14.778-22.211,0-30.686L34.857,3.613z"/></g><g/><g/><g/><g/><g/><g/><g/><g/><g/><g/><g/><g/><g/><g/><g/></symbol><symbol viewBox="0 0 479.99997 464.0093" id="src-7"><path d="m278.944 17.577c-5.568-2.656-12.128-1.952-16.928 1.92l-155.648 124.512h-74.368c-17.632 0-32 14.368-32 32v128c0 17.664 14.368 32 32 32h74.368l155.616 124.512c2.912 2.304 6.464 3.488 10.016 3.488 2.368 0 4.736-.544 6.944-1.6 5.536-2.656 9.056-8.256 9.056-14.4v-416c0-6.144-3.52-11.744-9.056-14.432z"/><path d="m368.992 126.857c-6.304-6.208-16.416-6.112-22.624.128-6.208 6.304-6.144 16.416.128 22.656 24.192 23.872 37.504 55.968 37.504 90.368s-13.312 66.496-37.504 90.368c-6.272 6.176-6.336 16.32-.128 22.624 3.136 3.168 7.264 4.736 11.36 4.736 4.064 0 8.128-1.536 11.264-4.64 30.336-29.856 47.008-70.048 47.008-113.088s-16.672-83.232-47.008-113.152z"/><path d="m414.144 81.769c-6.304-6.24-16.416-6.176-22.656.096-6.208 6.272-6.144 16.416.096 22.624 36.384 36.064 56.416 84.192 56.416 135.52s-20.032 99.424-56.416 135.488c-6.24 6.24-6.304 16.384-.096 22.656 3.168 3.136 7.264 4.704 11.36 4.704 4.064 0 8.16-1.536 11.296-4.64 42.496-42.08 65.856-98.272 65.856-158.208s-23.36-116.128-65.856-158.24z"/><g/><g/><g/><g/><g/><g/><g/><g/><g/><g/><g/><g/><g/><g/><g/></symbol></svg>